<?xml version="1.0" encoding="UTF-8"?>
<svg xmlns="http://www.w3.org/2000/svg" xmlns:xlink="http://www.w3.org/1999/xlink">
	<defs>
		<g id="document">
			<polygon fill="#8F8D8D" points="168,87 418,87 418,452 118,452 118,137 "/>
			<polygon fill="#EDEDED" points="176,73 406,73 406,438 106,438 106,143 "/>
			<polygon fill="#BFBFBF" points="177,72 106,143 177,143 "/>
		</g>
		<g id="rows">
			<rect fill="#BFBFBF" x="166" y="208" width="180.001" height="7.99963"/>
			<rect fill="#BFBFBF" x="166" y="238" width="180.001" height="7.99963"/>
			<rect fill="#BFBFBF" x="166" y="268" width="180.001" height="7.99963"/>
			<rect fill="#BFBFBF" x="166" y="298" width="180.001" height="7.99963"/>
			<rect fill="#BFBFBF" x="166" y="328" width="180.001" height="7.99963"/>
		</g>
	</defs>
	<symbol id="doc" viewBox="0 0 512 512">
		<use xlink:href="#document"/>
		<use xlink:href="#rows"/>
		<rect fill="black" x="288" y="312" width="160" height="82"/>
		<path fill="white" d="M303 333l17 0c4,0 6,0 8,0 3,1 5,3 7,5 2,2 3,4 4,7 1,3 2,6 2,10 0,4 -1,7 -2,10 -1,3 -2,6 -4,8 -2,1 -4,3 -7,3 -2,1 -4,1 -8,1l-17 0 0 -44zm9 7l0 30 7 0c3,0 5,0 6,-1 1,0 2,-1 3,-1 1,-1 2,-3 3,-5 0,-2 1,-5 1,-8 0,-3 -1,-6 -1,-8 -1,-2 -2,-3 -3,-4 -1,-1 -2,-2 -4,-2 -1,-1 -4,-1 -8,-1l-4 0zm35 15c0,-4 0,-8 2,-11 1,-3 2,-5 4,-6 2,-2 4,-4 6,-4 2,-2 6,-2 9,-2 7,0 12,2 16,6 4,4 6,10 6,17 0,7 -2,13 -6,17 -4,4 -9,6 -16,6 -6,0 -12,-2 -15,-6 -4,-4 -6,-10 -6,-17zm9 0c0,5 1,9 3,12 3,2 6,3 9,3 4,0 7,-1 9,-3 3,-3 4,-7 4,-12 0,-5 -1,-9 -4,-12 -2,-2 -5,-3 -9,-3 -3,0 -6,1 -9,3 -2,3 -3,7 -3,12zm70 6l9 3c-2,4 -4,8 -7,11 -3,2 -7,3 -12,3 -6,0 -11,-2 -15,-6 -4,-4 -5,-10 -5,-17 0,-7 1,-13 5,-17 4,-4 9,-6 15,-6 6,0 10,1 14,5 2,2 3,4 4,8l-9 2c0,-2 -1,-4 -3,-5 -2,-2 -4,-2 -6,-2 -3,0 -6,1 -8,3 -2,3 -3,6 -3,12 0,5 1,9 3,12 2,2 5,3 8,3 2,0 4,0 6,-2 2,-1 3,-4 4,-7z"/>
	</symbol>
	<symbol id="docx" viewBox="0 0 512 512">
		<use xlink:href="#doc"/>
	</symbol>
	<symbol id="xls" viewBox="0 0 512 512">
		<use xlink:href="#document"/>
		<rect fill="black" x="288" y="312" width="160" height="82"/>
		<path fill="white" d="M309 376l16 -23 -14 -22 10 0 9 14 9 -14 10 0 -14 22 16 23 -11 0 -10 -15 -10 15 -11 0zm47 0l0 -44 9 0 0 37 22 0 0 7 -31 0zm35 -14l9 -1c1,3 2,5 3,6 2,2 4,2 7,2 3,0 5,0 6,-1 2,-2 3,-3 3,-5 0,-1 -1,-2 -1,-2 -1,-1 -2,-2 -4,-2 -1,-1 -3,-1 -7,-2 -5,-2 -8,-3 -10,-5 -3,-2 -4,-5 -4,-9 0,-2 1,-4 2,-6 1,-2 3,-4 5,-5 3,-1 6,-1 9,-1 6,0 10,1 13,3 3,3 4,6 4,10l-9 1c0,-3 -1,-4 -2,-5 -1,-1 -3,-2 -6,-2 -2,0 -5,1 -6,2 -1,0 -1,1 -1,3 0,1 0,2 1,2 1,1 4,2 8,3 5,1 8,2 10,4 2,1 4,2 5,4 1,2 2,4 2,7 0,3 -1,5 -2,7 -2,3 -4,4 -7,5 -2,1 -5,2 -9,2 -6,0 -10,-1 -13,-4 -3,-3 -5,-6 -6,-11z"/>
	</symbol>
	<symbol id="xlsx" viewBox="0 0 512 512">
		<use xlink:href="#xls"/>
	</symbol>
	<symbol id="pdf" viewBox="0 0 512 512">
		<use xlink:href="#document"/>
		<rect fill="black" x="288" y="312" width="160" height="82"/>
		<path fill="white" d="M309 378l0 -47 15 0c6,0 10,0 12,0 3,1 5,2 7,5 2,2 2,5 2,9 0,3 0,6 -1,8 -1,2 -3,3 -4,4 -2,1 -4,2 -5,3 -2,0 -6,0 -10,0l-6 0 0 18 -10 0zm10 -39l0 13 5 0c4,0 6,0 7,-1 2,0 3,-1 3,-2 1,-1 1,-2 1,-4 0,-1 0,-3 -1,-4 -1,-1 -2,-2 -4,-2 -1,0 -3,0 -7,0l-4 0zm34 -8l18 0c4,0 7,0 9,0 3,1 5,3 7,5 2,2 4,4 5,8 1,3 1,6 1,11 0,4 0,7 -1,10 -1,3 -3,6 -5,8 -2,2 -4,3 -7,4 -2,1 -5,1 -9,1l-18 0 0 -47zm10 8l0 31 7 0c3,0 5,0 6,0 2,-1 3,-1 4,-2 1,-1 2,-3 2,-5 1,-2 1,-5 1,-9 0,-3 0,-6 -1,-8 0,-2 -1,-4 -2,-5 -2,-1 -3,-2 -5,-2 -1,0 -4,0 -8,0l-4 0zm39 39l0 -47 32 0 0 8 -23 0 0 11 20 0 0 8 -20 0 0 20 -9 0z"/>
	</symbol>
	<symbol id="text" viewBox="0 0 512 512">
		<use xlink:href="#document"/>
		<use xlink:href="#rows"/>
	</symbol>
	<symbol id="image" viewBox="0 0 512 512">
		<use xlink:href="#document"/>
		<rect fill="#CFCFCF" x="146" y="202" width="220" height="160"/>
		<circle fill="#EDEDED" cx="256" cy="277" r="35"/>
		<polygon fill="#8F8D8D" points="367,362 146,362 214,295 238,319 308,249 367,308 "/>
		<polygon fill="white" points="344,284 308,249 272,284 286,279 293,290 300,282 310,302 318,285 328,293 334,282 "/>
		<polygon fill="white" points="244,324 213,294 183,324 194,320 196,329 207,323 215,335 221,320 227,326 231,320 "/>
	</symbol>
	<symbol id="video" viewBox="0 0 512 512">
		<use xlink:href="#document"/>
		<rect fill="#8F8D8D" x="174" y="235" width="136" height="102" rx="15" ry="15"/>
		<circle fill="#8F8D8D" cx="256" cy="199" r="30"/>
		<circle fill="#8F8D8D" cx="195" cy="209" r="21"/>
		<polygon fill="#8F8D8D" points="350,230 351,230 354,233 354,340 351,343 350,343 316,309 316,263 "/>
		<circle fill="white" cx="196" cy="312" r="10"/>
		<circle fill="white" cx="226" cy="312" r="10"/>
		<rect fill="#EDEDED" x="256" y="248" width="53" height="8"/>
	</symbol>
	<symbol id="zip" viewBox="0 0 512 512">
		<use xlink:href="#document"/>
		<rect fill="#595959" x="307" y="177" width="41.7511" height="68" rx="20" ry="20"/>
		<rect fill="#949494" x="309" y="209" width="37.2371" height="81" rx="8" ry="7"/>
		<rect fill="white" x="317" y="188" width="21" height="46" rx="13" ry="18"/>
		<rect fill="#595959" x="320" y="191" width="16" height="38" rx="10" ry="15"/>
		<rect fill="#EDEDED" x="315" y="264" width="25" height="20" rx="5" ry="7"/>
		<rect fill="#595959" x="308" y="166" width="18" height="9"/>
		<rect fill="#595959" x="330" y="166" width="18" height="9"/>
		<rect fill="#595959" x="308" y="151" width="18" height="9"/>
		<rect fill="#595959" x="330" y="151" width="18" height="9"/>
		<rect fill="#595959" x="308" y="137" width="18" height="9"/>
		<rect fill="#595959" x="330" y="137" width="18" height="9"/>
		<rect fill="#595959" x="308" y="122" width="18" height="9"/>
		<rect fill="#595959" x="330" y="122" width="18" height="9"/>
		<rect fill="#595959" x="308" y="108" width="18" height="9"/>
		<rect fill="#595959" x="330" y="108" width="18" height="9"/>
		<rect fill="#595959" x="308" y="93" width="18" height="9"/>
		<rect fill="#595959" x="330" y="93" width="18" height="9"/>
		<rect fill="black" x="288" y="312" width="160" height="82"/>
		<path fill="white" d="M316 381l0 -10 28 -35 -25 0 0 -9 39 0 0 8 -29 37 30 0 0 9 -43 0zm50 0l0 -54 11 0 0 54 -11 0zm21 0l0 -54 17 0c7,0 11,0 13,1 3,1 6,2 8,5 2,3 3,6 3,10 0,4 -1,7 -2,9 -1,2 -3,4 -4,5 -2,1 -4,2 -6,3 -3,0 -6,0 -11,0l-7 0 0 21 -11 0zm11 -45l0 15 6 0c4,0 7,0 8,-1 2,0 3,-1 4,-2 0,-1 1,-3 1,-4 0,-2 -1,-4 -2,-5 -1,-1 -3,-2 -4,-3 -2,0 -4,0 -8,0l-5 0z"/>
	</symbol>
	<symbol id="application" viewBox="0 0 512 512">
		<use xlink:href="#document"/>
		<path fill="#8F8D8D" d="M283 160c3,0 6,1 9,2 -3,5 -1,12 4,14 5,3 11,2 15,-3 2,2 4,4 6,7 -4,3 -6,9 -3,14 3,5 9,7 14,5 1,3 2,6 3,9 -6,0 -10,5 -10,11 0,6 4,10 10,11 -1,3 -2,6 -3,9 -5,-2 -11,-1 -14,4 -3,6 -1,12 3,15 -2,2 -4,5 -6,7 -3,-5 -10,-6 -15,-4 -5,3 -7,10 -4,15 -3,1 -6,2 -9,2 -1,-5 -6,-10 -11,-10 -6,0 -11,5 -11,10 -4,0 -7,-1 -10,-2 3,-5 1,-12 -4,-15 -5,-2 -11,-1 -15,4 -2,-2 -4,-5 -6,-7 4,-3 6,-9 3,-15 -3,-5 -9,-6 -14,-4 -1,-3 -2,-6 -3,-9 6,-1 10,-5 10,-11 0,-6 -4,-11 -10,-11 1,-3 2,-6 3,-9 5,2 11,0 14,-5 3,-5 1,-11 -3,-14 2,-3 4,-5 7,-7 3,5 9,6 14,3 5,-2 7,-9 5,-14 2,-1 6,-2 9,-2 0,5 5,10 11,10 5,0 10,-5 11,-10z"/>
		<path fill="#BFBFBF" d="M215 258c2,0 4,0 5,1 -1,5 0,10 5,13 5,3 11,2 14,-2 1,1 2,2 3,4 -5,2 -7,7 -6,12 2,6 7,9 12,9 0,1 -1,3 -1,5 -5,-2 -10,0 -13,4 -3,5 -2,11 2,14 -1,2 -2,3 -4,4 -2,-5 -7,-8 -13,-6 -5,1 -8,6 -8,11 -1,0 -3,0 -5,0 2,-5 0,-11 -5,-14 -4,-3 -10,-1 -14,3 -1,-1 -2,-3 -3,-4 5,-2 8,-8 6,-13 -1,-6 -6,-9 -12,-8 0,-2 1,-4 1,-6 5,2 11,1 14,-4 3,-5 1,-11 -3,-14 1,-2 3,-3 4,-4 2,5 8,8 13,7 5,-2 9,-7 8,-12z"/>
		<path fill="#8F8D8D" d="M295 276c3,0 5,1 8,2 -2,4 -1,9 3,11 4,3 9,1 12,-2 2,1 3,3 5,5 -4,3 -5,8 -3,12 3,3 8,5 12,3 1,2 1,5 2,7 -5,1 -8,4 -8,9 0,5 3,8 8,9 -1,2 -1,5 -2,7 -4,-2 -9,0 -12,4 -2,4 -1,9 3,11 -2,2 -3,4 -5,5 -3,-3 -8,-4 -12,-2 -4,2 -5,7 -3,11 -3,1 -5,2 -8,2 0,-4 -4,-8 -8,-8 -5,0 -9,4 -9,8 -3,0 -5,-1 -7,-2 2,-4 0,-9 -4,-11 -4,-2 -9,-1 -11,2 -2,-1 -4,-3 -6,-5 4,-2 5,-8 3,-11 -2,-4 -7,-6 -11,-4 -1,-2 -2,-5 -2,-7 4,-1 8,-4 8,-9 0,-5 -4,-8 -8,-9 0,-2 1,-5 2,-7 4,2 9,0 11,-3 2,-4 1,-9 -3,-12 2,-2 4,-4 6,-5 2,3 7,5 11,2 4,-2 6,-7 4,-11 2,-1 4,-2 7,-2 0,5 4,8 9,8 4,0 8,-3 8,-8z"/>
		<circle fill="#EDEDED" cx="272" cy="219" r="41"/>
		<circle fill="#EDEDED" transform="matrix(0.819016 -0.219455 0.219455 0.819016 213.26 293.361)" r="20"/>
		<circle fill="#EDEDED" cx="287" cy="323" r="31"/>
	</symbol>
    <symbol id="folder" viewBox="0 0 512 512">
		<path fill="#DDD" d="M174 116l295 0c9,0 17,8 17,17l0 251c0,10 -8,18 -17,18l-426 0c-9,0 -17,-8 -17,-18 0,-90 0,-180 0,-270 0,-14 11,-25 25,-25l86 0c7,0 12,2 17,6 6,6 13,14 20,21z"/>
        <rect fill="#56AAFF" x="26" y="140" width="460" height="286" rx="22" ry="22"/>
	</symbol>
    <symbol id="outfolder" viewBox="0 0 512 512">
		<path fill="#EEE" d="M174 116l295 0c9,0 17,8 17,17l0 251c0,10 -8,18 -17,18l-426 0c-9,0 -17,-8 -17,-18 0,-90 0,-180 0,-270 0,-14 11,-25 25,-25l86 0c7,0 12,2 17,6 6,6 13,14 20,21z"/>
        <rect fill="#CCC" x="26" y="180" width="460" height="246" rx="22" ry="22"/>
        <polygon fill="#BBB" points="360,30 440,100 400,100 400,160 320,160 320,100 280,100"/>
	</symbol>
	<symbol id="cloud">
		<path fill="white" d="M107 422c-4,0 -7,1 -10,1 -48,0 -87,-37 -87,-82 0,-44 38,-80 86,-81 0,-1 0,-2 0,-3 0,-31 25,-56 56,-56 12,0 23,4 32,10 4,-56 46,-100 99,-100 46,0 85,34 96,81 68,0 123,52 123,116 0,50 -33,93 -80,109 -12,14 -29,23 -48,23l-15 0 0 -105 52 0 -99 -110 -100 110 53 0 0 105 -115 0c-17,0 -32,-7 -43,-18z"/>
		<path d="M129 410c-3,1 -6,1 -9,1 -41,0 -74,-31 -74,-69 0,-38 33,-69 74,-69 0,-1 0,-2 0,-3 0,-26 21,-48 47,-48 10,0 20,3 27,9 4,-48 40,-86 85,-86 39,0 72,30 82,69 58,1 105,45 105,100 0,42 -29,78 -69,92 -9,12 -23,20 -38,20l0 -91 52 0 -99 -110 -100 110 53 0 0 91 -99 0c-15,0 -27,-6 -37,-16z"/>
	</symbol>
	<symbol id="trash">
		<path d="M154 115l25 0 3 139 -10 9 10 10 1 79 -10 11 11 10 1 70 -25 0c-17,0 -30,-13 -30,-30l-6 -268c-1,-16 13,-30 30,-30zm30 0l69 0 0 161 -47 -47 -20 20 -2 -134zm69 233l0 95 -63 0 -1 -64 17 17 47 -48zm-65 -1l-1 -69 35 35 -34 34zm71 -232l64 0 -2 129 -15 -15 -47 48 0 -162zm61 167l-1 60 -29 -30 30 -30zm-2 102l-1 59 -58 0 0 -94 47 47 12 -12zm10 -269l31 0c16,0 30,14 30,30l-6 268c-1,17 -14,30 -30,30l-31 0 1 -64 17 -17 -16 -16 1 -69 14 -14 -13 -14 2 -134z"/>
		<path d="M130 82l100 0c0,-1 0,-2 0,-3l0 -3c0,-4 3,-7 7,-7l38 0c4,0 7,3 7,7l0 3c0,1 0,2 0,3l100 0c3,0 6,3 6,7l0 11c0,4 -3,7 -6,7l-252 0c-3,0 -6,-3 -6,-7l0 -11c0,-4 3,-7 6,-7z"/>
	</symbol>
	<symbol id="addfolder">
		<path fill="#DDD" d="M174 116l295 0c9,0 17,8 17,17l0 251c0,10 -8,18 -17,18l-426 0c-9,0 -17,-8 -17,-18 0,-90 0,-180 0,-270 0,-14 11,-25 25,-25l86 0c7,0 12,2 17,6 6,6 13,14 20,21z"/>
        <rect x="26" y="140" width="460" height="286" rx="22" ry="22"/>
		<text x="220" y="420" fill="black" font-size="380px" font-weight="bold">+</text>
	</symbol>
</svg>