<?xml version="1.0" encoding="UTF-8"?>
<svg xmlns="http://www.w3.org/2000/svg" xmlns:xlink="http://www.w3.org/1999/xlink">
	<defs>
		<style type="text/css">
    	<![CDATA[
    	.fil2 {fill:black}
    	.fil0 {fill:#00B7FF}
    	.fil8 {fill:#30A0F0}
    	.fil4 {fill:#4297FF}
    	.fil13 {fill:#525252}
    	.fil14 {fill:#666666}
    	.fil9 {fill:#8F8D8D}
    	.fil6 {fill:#9E9B9B}
    	.fil15 {fill:#A3A1A1}
    	.fil7 {fill:#B5B5B5}
    	.fil11 {fill:#BFBFBF}
    	.fil3 {fill:#D0D0D0}
    	.fil12 {fill:#E6002E}
    	.fil10 {fill:#EDEDED}
    	.fil16 {fill:#FA0043}
    	.fil1 {fill:#FF0A0A}
    	.fil5 {fill:white}
    	]]>
    	</style>
	</defs>
	<symbol id="cloud">
		<path d="M107 422c-4,0 -7,1 -10,1 -48,0 -87,-37 -87,-82 0,-44 38,-80 86,-81 0,-1 0,-2 0,-3 0,-31 25,-56 56,-56 12,0 23,4 32,10 4,-56 46,-100 99,-100 46,0 85,34 96,81 68,0 123,52 123,116 0,50 -33,93 -80,109 -12,14 -29,23 -48,23l-15 0 0 -105 52 0 -99 -110 -100 110 53 0 0 105 -115 0c-17,0 -32,-7 -43,-18z"/>
	</symbol>
	<symbol id="trash">
		<path d="M385 244l4 -113c1,-16 -14,-16 -30,-16l-205 0c-17,0 -32,0 -31,16l10 282c0,17 13,30 30,30l185 0c17,0 29,-13 30,-30l7 -168 -48 0 2 2 -49 50 49 50 -34 33 -49 -49 -50 49 -33 -33 49 -50 -49 -49 34 -34 49 50 50 -50 29 30 50 0z"/>
		<path d="M126 79l103 0c0,-1 0,-2 0,-3l0 -4c0,-4 3,-8 7,-8l40 0c4,0 7,4 7,8l0 4c0,1 0,2 -1,3l104 0c4,0 7,3 7,8l0 13c0,5 -3,8 -7,8l-260 0c-4,0 -7,-3 -7,-8l0 -13c0,-5 3,-8 7,-8z"/>
	</symbol>
	<symbol id="folder">
		<path fill="#DDD" d="M81 120l7 0 1 -7c0,-14 10,-25 22,-25l65 0c6,0 12,3 16,8l23 24 217 0c17,0 30,15 30,33l0 35 -412 0 0 -35c0,-18 14,-33 31,-33z"/>
  		<rect x="27" y="147" width="458" height="290" rx="39" ry="38"/>
	</symbol>
	<symbol id="addfolder">
		<path fill="#DDD" d="M67 107l8 0 0 -7c0,-14 11,-25 24,-25l54 0c7,0 13,3 17,7l24 25 243 0c18,0 32,15 32,33l0 35 -434 0 0 -35c0,-18 14,-33 32,-33z"/>
		<path d="M481 324l0 -154c0,-19 -15,-34 -34,-34l-390 0c-19,0 -34,15 -34,34l0 222c0,18 15,34 34,34l390 0c19,0 34,-16 34,-34l0 -67 -23 0 0 20 -66 0 0 65 -44 0 0 -65 -67 0 0 -45 67 0 0 -66 43 0 0 66 67 0 0 24 23 0z"/>
	</symbol>
	<symbol id="user">
		<path class="fil2" d="M243 49l27 0c45,0 81,36 81,81l0 44c0,47 -53,98 -96,98 -44,0 -93,-54 -93,-98l0 -44c0,-45 36,-81 81,-81z"/>
		<path class="fil2" d="M226 279l60 0c95,0 173,47 173,207l-406 0c0,-164 78,-207 173,-207z"/>
	</symbol>
	<symbol id="adduser">
		<path d="M242 44l29 0c45,0 83,37 83,83l0 45c0,48 -55,100 -99,100 -45,0 -96,-55 -96,-100l0 -45c0,-46 38,-83 83,-83z"/>
		<path d="M464 491l-416 0c0,-167 80,-211 178,-211l60 0c120,0 178,104 178,211z"/>
		<polygon fill="white" points="339,297 391,297 391,375 469,375 469,428 391,428 391,504 339,504 339,428 260,428 260,375 339,375 "/>
	</symbol>
	<symbol id="users">
		<path fill="#777" d="M303 102l23 0c36,0 66,30 66,66l0 35c0,38 -44,80 -78,80 -36,0 -76,-44 -76,-80l0 -35c0,-36 29,-66 65,-66z"/>
  		<path fill="#777" d="M290 289l48 0c78,0 141,52 141,181l-330 0c0,-132 64,-181 141,-181z"/>
  		<path d="M187 112l24 0c39,0 71,32 71,70l0 39c0,41 -47,85 -84,85 -39,0 -82,-47 -82,-85l0 -39c0,-38 32,-70 71,-70z"/>
  		<path d="M173 313l52 0c83,0 151,40 151,179l-355 0c1,-142 69,-179 152,-179z"/>
	</symbol>
	<symbol id="settings">
		<path d="M283 115l0 -51 -8 0 -1 -11c-8,0 -17,1 -25,3l2 11 -16 5 -4 -11c-8,3 -16,6 -23,10l4 10 -14 8 -6 -9c-7,5 -14,10 -20,16l7 9 -12 11 -9 -7c-5,6 -10,13 -15,20l9 7 -8 14 -10 -5c-4,8 -7,16 -10,24l11 4 -4 16 -12 -2c-1,8 -2,16 -3,25l12 1 0 17 -12 1c1,8 2,17 4,25l11 -2 4 16 -11 4c3,8 6,16 10,23l11 -4 8 14 -9 6c4,7 10,14 15,20l9 -7 12 12 -8 8c7,6 14,11 21,16l7 -9 14 8 -5 10c7,4 15,7 23,10l5 -11 15 4 -2 12c9,1 17,2 26,3l1 -12 16 0 1 12c9,-1 17,-2 25,-4l-1 -11 15 -4 4 10c8,-2 16,-6 24,-9l-5 -11 14 -8 7 9c7,-4 14,-10 20,-15l-7 -9 11 -12 9 7c6,-6 11,-13 15,-20l-9 -7 8 -14 11 5c4,-7 7,-15 9,-23l-10 -5 4 -15 11 2c2,-9 3,-17 3,-26l-11 -1 0 -16 11 -1c0,-9 -1,-17 -3,-25l-11 1 -5 -16 11 -3c-3,-9 -6,-16 -10,-24l-10 5 -8 -14 9 -7c-5,-7 -10,-14 -16,-20l-9 7 -11 -11 7 -9c-6,-6 -13,-11 -20,-16l-7 10 -14 -9 5 -10c-8,-4 -16,-7 -24,-9l-4 10 -16 -4 2 -11c-8,-2 -16,-3 -25,-3l-1 11 -8 0 0 50c59,0 106,48 106,107 0,58 -47,106 -106,106 -58,0 -106,-48 -106,-106 0,-59 47,-106 105,-106z"/>
  		<path fill="#BBB" d="M187 401c0,-6 -1,-12 -2,-17l11 -4 -3 -11 -12 4c-4,-9 -9,-17 -15,-24l8 -9 -9 -8 -8 10c-8,-6 -16,-10 -25,-13l2 -12 -11 -2 -3 12c-9,-1 -19,-1 -28,1l-4 -11 -11 4 4 11c-9,4 -17,9 -23,16l-9 -8 -8 9 9 7c-6,8 -10,16 -13,26l-11 -2 -2 11 11 2c-1,10 -1,20 2,29l-11 3 4 11 10 -3c4,9 10,17 16,23l-7 9 9 8 7 -9c8,6 16,10 26,12l-3 12 12 2 2 -11c10,1 19,0 28,-2l4 11 11 -4 -4 -11c9,-4 17,-9 23,-16l10 8 7 -9 -9 -8c6,-7 10,-16 12,-25l12 2 3 -11 -12 -3c0,-3 0,-6 0,-8l-25 0c0,28 -23,50 -51,50 -28,0 -51,-22 -51,-50 0,-29 23,-51 51,-51 28,0 51,22 51,50l25 -1z"/>
  		<circle fill="#AAA" cx="284" cy="221" r="30"/>
	</symbol>
	<symbol id="dictionaries">
 		<path fill="#777" d="M103 32l280 0c12,0 22,9 22,21l0 65c0,3 -3,6 -6,6l-318 0 0 -70c0,-12 10,-22 22,-22z"/>
 		<path d="M352 175l68 0 0 274c0,11 -9,20 -20,20l-308 0 0 -419 308 0c11,0 20,9 20,20l0 104 -68 0 0 -26c0,-5 -3,-8 -8,-8l-156 0c-4,0 -8,3 -8,8l0 72c0,4 4,8 8,8l156 0c5,0 8,-4 8,-8l0 -45z"/>
 		<polygon fill="#777" points="76,50 119,50 119,469 76,469 76,436 67,436 67,415 76,415 76,393 67,393 67,372 76,372 76,350 67,350 67,329 76,329 76,308 67,308 67,287 76,287 76,265 67,265 67,244 76,244 76,223 67,223 67,202 76,202 76,180 67,180 67,159 76,159 76,137 67,137 67,116 76,116 76,95 67,95 67,73 76,73 "/>
	</symbol>
	<symbol id="adddictionary">
		<path fill="#777" d="M103 32l280 0c12,0 22,9 22,21l0 65c0,3 -3,6 -6,6l-318 0 0 -70c0,-12 10,-22 22,-22z"/>
		<path d="M420 179l0 -109c0,-11 -9,-20 -20,-20l-308 0 0 419 308 0c11,0 20,-9 20,-20l0 -269 -68 0 0 40c0,4 -3,8 -8,8l-156 0c-4,0 -8,-4 -8,-8l0 -72c0,-5 4,-8 8,-8l156 0c5,0 8,3 8,8l0 31 68 0z"/>
		<polygon fill="#777" points="76,50 119,50 119,469 76,469 76,436 67,436 67,415 76,415 76,393 67,393 67,372 76,372 76,350 67,350 67,329 76,329 76,308 67,308 67,287 76,287 76,265 67,265 67,244 76,244 76,223 67,223 67,202 76,202 76,180 67,180 67,159 76,159 76,137 67,137 67,116 76,116 76,95 67,95 67,73 76,73 "/>
		<polygon fill="white" points="317,282 368,282 368,360 446,360 446,412 368,412 368,489 317,489 317,412 238,412 238,360 317,360 "/>
	</symbol>
	<symbol id="dropdictionary">
		<path fill="#777" d="M103 32l280 0c12,0 22,9 22,21l0 65c0,3 -3,6 -6,6l-318 0 0 -70c0,-12 10,-22 22,-22z"/>
 		<path d="M352 175l68 0 0 274c0,11 -9,20 -20,20l-308 0 0 -419 308 0c11,0 20,9 20,20l0 104 -68 0 0 -26c0,-5 -3,-8 -8,-8l-156 0c-4,0 -8,3 -8,8l0 72c0,4 4,8 8,8l156 0c5,0 8,-4 8,-8l0 -45z"/>
 		<polygon fill="#777" points="76,50 119,50 119,469 76,469 76,436 67,436 67,415 76,415 76,393 67,393 67,372 76,372 76,350 67,350 67,329 76,329 76,308 67,308 67,287 76,287 76,265 67,265 67,244 76,244 76,223 67,223 67,202 76,202 76,180 67,180 67,159 76,159 76,137 67,137 67,116 76,116 76,95 67,95 67,73 76,73 "/>
		<path fill="white" d="M460 255c0,-13 -11,-12 -24,-12l-159 0c-13,0 -25,-1 -24,12l7 220c1,13 11,23 24,23l144 0c13,0 23,-10 23,-23 3,-73 6,-147 9,-220zm-39 91l-39 38 39 39 -26 26 -39 -38 -38 38 -26 -26 38 -38 -39 -39 27 -26 39 38 38 -38 26 26z"/>
		<path fill="white" d="M255 214l81 0c-1,0 -1,-1 -1,-2l0 -3c0,-3 3,-6 6,-6l31 0c3,0 5,3 5,6l0 3c0,1 0,2 0,2l81 0c3,0 5,3 5,7l0 10c0,4 -2,6 -5,6l-203 0c-3,0 -5,-2 -5,-6l0 -10c0,-4 2,-7 5,-7z"/>
		<polygon fill="black" points="318,320 291,346 330,385 292,423 318,449 356,411 395,449 421,423 382,384 421,346 395,320 357,358 "/>
	</symbol>
	<symbol id="extensions">
		<rect x="63" y="56" width="102" height="102"/>
		<rect fill="#56AAFF" x="205" y="56" width="102" height="102"/>
		<rect x="347" y="56" width="102" height="102"/>
		<rect fill="#56AAFF" x="63" y="199" width="102" height="102"/>
		<rect x="205" y="199" width="102" height="102"/>
		<rect x="347" y="199" width="102" height="102"/>
		<rect fill="#56AAFF" x="63" y="342" width="102" height="102"/>
		<rect x="205" y="342" width="102" height="102"/>
		<rect x="347" y="342" width="102" height="102"/>
	</symbol>
	<symbol id="materials">
		<polygon class="fil9" points="144,48 441,48 441,481 85,481 85,108 "/>
		<polygon class="fil10" points="154,32 427,32 427,465 71,465 71,115 "/>
		<polygon class="fil11" points="155,31 71,115 155,115 "/>
	</symbol>
	<symbol id="addmaterial">
		<polygon class="fil9" points="152,62 430,62 430,468 97,468 97,118 "/>
		<polygon class="fil2" points="161,47 417,47 417,452 83,452 83,124 "/>
		<polygon class="fil11" points="162,45 83,124 162,124 "/>
		<polygon class="fil5" points="348,320 389,320 389,382 451,382 451,424 389,424 389,485 348,485 348,424 285,424 285,382 348,382 "/>
	</symbol>
	<symbol id="dropmaterial">
 		<polygon class="fil9" points="146,51 437,51 437,477 87,477 87,110 "/>
 		<polygon class="fil2" points="155,35 423,35 423,461 73,461 73,117 "/>
 		<polygon class="fil11" points="156,34 73,117 156,117 "/>
 		<path class="fil12" d="M457 353l3 -83c1,-12 -10,-11 -22,-11l-150 0c-12,0 -22,-1 -22,11l7 206c0,12 10,22 22,22l135 0c12,0 22,-10 22,-22l5 -122 -35 0 2 1 -36 36 36 37 -25 25 -36 -37 -36 36 -24 -24 36 -36 -37 -36 25 -25 36 36 36 -36 22 22 36 0z"/>
 		<path class="fil12" d="M268 232l76 0c-1,0 -1,-1 -1,-2l0 -3c0,-3 3,-5 6,-5l28 0c3,0 6,2 6,5l0 3c0,1 0,2 -1,2l76 0c3,0 5,3 5,6l0 10c0,3 -2,6 -5,6l-190 0c-3,0 -5,-3 -5,-6l0 -10c0,-3 2,-6 5,-6z"/>
	</symbol>
	<symbol id="mediaset">
		<rect class="fil13" x="62" y="88" width="426" height="310"/>
		<rect class="fil14" x="48" y="101" width="426" height="310"/>
		<rect class="fil15" x="32" y="113" width="428" height="310"/>
		<circle class="fil10" cx="245" cy="258" r="68"/>
		<polygon class="fil14" points="460,423 32,423 164,293 210,340 346,204 460,318 "/>
		<polygon class="fil5" points="415,272 346,204 276,272 303,262 317,284 330,268 350,307 365,274 384,289 396,268 "/>
		<polygon class="fil5" points="222,349 162,291 104,349 125,342 129,359 150,347 166,371 177,342 189,353 197,342 "/>
	</symbol>
	<symbol id="addmediaset">
		<rect class="fil15" x="32" y="113" width="428" height="310"/>
		<circle class="fil10" cx="245" cy="258" r="68"/>
		<polygon class="fil14" points="460,423 32,423 164,293 210,340 346,204 460,318 "/>
		<polygon class="fil5" points="415,272 346,204 276,272 303,262 317,284 330,268 350,307 365,274 384,289 396,268 "/>
		<polygon class="fil5" points="222,349 162,291 104,349 125,342 129,359 150,347 166,371 177,342 189,353 197,342 "/>
		<polygon class="fil5" points="387,289 429,289 429,350 490,350 490,393 429,393 429,453 387,453 387,393 325,393 325,350 387,350 "/>
	</symbol>
	<symbol id="dropmediaset">
		<rect class="fil15" x="32" y="113" width="428" height="310"/>
		<circle class="fil10" cx="245" cy="258" r="68"/>
		<polygon class="fil14" points="460,423 32,423 164,293 210,340 346,204 460,318 "/>
		<polygon class="fil5" points="415,272 346,204 276,272 303,262 317,284 330,268 350,307 365,274 384,289 396,268 "/>
		<polygon class="fil5" points="222,349 162,291 104,349 125,342 129,359 150,347 166,371 177,342 189,353 197,342 "/>
		<polygon class="fil16" points="447,276 481,309 430,360 481,410 446,445 396,394 346,444 312,410 362,361 311,310 345,275 396,326 "/>
	</symbol>
	<symbol id="addlanguage">
		<circle fill="#56AAFF" cx="256" cy="256" r="231"/>
		<polygon points="209,177 217,171 223,168 216,149 216,140 203,143 193,150 188,150 187,139 195,127 192,125 181,127 174,123 167,122 153,118 142,124 129,125 127,116 133,104 137,95 135,92 138,87 144,97 137,107 140,117 146,118 150,106 153,100 159,104 165,98 167,90 166,87 158,85 152,80 151,73 139,79 127,87 120,91 122,97 117,99 117,88 112,85 62,143 30,222 36,279 41,275 44,277 47,275 47,270 50,273 53,265 54,258 57,260 56,274 53,282 50,282 49,278 46,284 48,298 55,313 73,328 74,321 72,309 76,296 76,281 82,265 86,264 84,278 82,289 81,305 79,314 79,321 76,336 64,330 63,334 81,362 99,379 117,395 124,412 138,426 160,436 168,446 177,447 188,454 200,459 215,462 234,462 239,460 235,439 229,429 230,416 216,406 208,403 204,383 208,365 194,349 194,342 208,337 211,331 212,325 230,322 243,323 253,318 268,314 272,314 281,300 291,291 288,282 299,265 295,258 296,252 284,241 284,234 283,229 285,226 261,209 247,206 237,200 235,191 224,186 217,185 211,184 204,187 157,198 151,204 154,215 145,225 140,229 138,235 127,242 124,241 124,232 116,232 107,242 97,248 93,245 85,250 83,248 79,226 83,225 86,228 91,221 95,223 103,212 103,197 110,196 114,202 108,214 113,218 122,199 123,186 141,162 146,166 136,184 126,192 134,204 134,193 140,185 150,170 154,163 164,165 172,159 176,160 176,167 185,170 189,172 189,178 196,182 "/>
		<path d="M458 367l-4 -11 -6 -8 2 -10 -19 2 -9 -8 -3 -14 -16 -8 -1 -17 16 -18 20 -25 5 -7 -5 -9 4 -16 8 -12 -1 -14 2 -11 10 -15 6 -2c12,28 19,59 19,92 0,40 -10,78 -28,111z"/>
		<path d="M413 87l-7 4 -26 -19 -7 7 -4 -4 1 -5 -10 -4 1 6 -19 -2 4 -7 -12 -4 3 -3 -9 -1 1 8 4 4 -7 8 -11 -9 4 -3 -16 -7 -5 -9 -24 -10 -37 -2 2 -3 36 -1 44 9 -4 -7c37,10 71,29 98,54z"/>
		<polygon fill="white" points="301,176 380,176 380,295 498,295 498,376 380,376 380,493 301,493 301,376 180,376 180,295 301,295 "/>
	</symbol>
</svg>